<?xml version="1.0" encoding="UTF-8"?>
<svg xmlns="http://www.w3.org/2000/svg" viewBox="0 0 1024 1024" width="1024" height="1024">
  <g fill="#FB1B27" fill-rule="evenodd" stroke="none">
    <path d="M135.10 737.45 C192.23 730.38, 240.34 710.08, 285.27 674.11 C301.63 661.01, 311.70 651.50, 349.50 613.47 C367.10 595.76, 386.68 576.88, 393.00 571.51 C434.82 536.05, 476.63 521.24, 524.37 524.96 C548.71 526.85, 568.84 532.59, 589.89 543.64 C617.59 558.17, 634.64 572.35, 683.50 621.48 C723.92 662.12, 731.29 668.95, 749.17 682.33 C795.91 717.30, 851.56 736.38, 916.43 739.67 L929.00 740.31 L929.00 706.30 L929.00 672.30 L915.75 671.70 C885.49 670.33, 853.74 661.88, 825.08 647.59 C796.79 633.47, 774.28 615.53, 740.84 580.47 C726.78 565.74, 699.45 536.16, 693.04 528.75 L689.79 525.00 L809.40 525.00 L929.00 525.00 L929.00 493.00 L929.00 461.01 L812.50 460.75 L695.99 460.50 L735.25 421.38 C785.20 371.60, 787.65 369.42, 811.56 353.43 C839.91 334.47, 870.52 323.20, 906.30 318.54 C912.79 317.69, 920.55 317.00, 923.55 317.00 L929.00 317.00 L929.00 285.00 L929.00 253.00 L918.75 253.00 C878.17 253.02, 834.43 263.21, 798.42 281.04 C761.40 299.37, 738.80 317.52, 685.94 371.40 C657.77 400.11, 642.45 413.89, 624.67 426.52 C593.52 448.64, 564.32 460.16, 529.79 463.94 C496.73 467.56, 461.75 461.24, 430.50 446.00 C402.21 432.21, 386.42 419.39, 335.00 368.54 C283.65 317.76, 264.03 301.76, 232.75 285.17 C194.98 265.13, 146.60 253.02, 104.25 253.00 L95.00 253.00 L95.00 284.85 L95.00 316.71 L105.75 317.39 C153.44 320.45, 192.77 336.22, 233.50 368.62 C239.95 373.75, 261.88 394.67, 286.50 419.17 L328.50 460.97 L211.75 460.99 L95.00 461.00 L95.00 493.00 L95.00 525.00 L214.50 525.00 C289.33 525.00, 334.00 525.36, 334.00 525.95 C334.00 526.47, 333.40 527.26, 332.66 527.70 C331.92 528.14, 320.12 540.65, 306.44 555.50 C257.35 608.79, 237.98 626.13, 208.95 642.80 C178.61 660.23, 144.15 670.26, 109.75 671.69 L95.00 672.30 L95.00 706.30 L95.00 740.30 L109.23 739.59 C117.05 739.21, 128.69 738.24, 135.10 737.45 Z"/>
  </g>
</svg>